<svg width="20" height="20" viewBox="0 0 20 20" fill="none" xmlns="http://www.w3.org/2000/svg">
    <path fill-rule="evenodd" clip-rule="evenodd" d="M15 7.54545C15 10.4984 13.5761 12.9063 12.0091 14.6589C11.2895 15.4636 10.5667 16.0986 10 16.5464C9.4333 16.0986 8.71048 15.4636 7.99094 14.6589C6.42392 12.9063 5 10.4984 5 7.54545C5 5.15943 7.10997 3 10 3C12.89 3 15 5.15943 15 7.54545ZM17 7.54545C17 14.7968 10 19 10 19C10 19 3 14.7968 3 7.54545C3 3.9305 6.13401 1 10 1C13.866 1 17 3.9305 17 7.54545ZM11 8C11 8.55228 10.5523 9 10 9C9.44772 9 9 8.55228 9 8C9 7.44772 9.44772 7 10 7C10.5523 7 11 7.44772 11 8ZM13 8C13 9.65685 11.6569 11 10 11C8.34315 11 7 9.65685 7 8C7 6.34315 8.34315 5 10 5C11.6569 5 13 6.34315 13 8Z" fill="white"/>
</svg>
