<svg width="360" height="470" viewBox="0 0 360 470" fill="none" xmlns="http://www.w3.org/2000/svg">
    <path d="M285.763 3.05176e-05C285.763 17.8772 279.423 33.1147 266.771 45.7074C254.109 58.2951 238.789 64.6042 220.816 64.6042H139.148C121.165 64.6042 105.855 58.2951 93.1934 45.7074C80.5315 33.1147 74.2006 17.8772 74.2006 3.05176e-05H285.763ZM359.964 293.787V470H179.762C130.646 470 88.3995 452.845 53.0469 418.554C17.6841 384.253 0 342.669 0 293.787C0 244.925 17.6841 203.19 53.0469 168.602C88.3995 134.003 130.646 116.711 179.762 116.711C228.882 116.711 271.19 134.003 306.71 168.602C342.22 203.19 359.964 244.925 359.964 293.787ZM284.516 399.783V293.787C284.516 264.655 274.38 239.55 254.038 218.498C233.767 197.456 208.91 186.923 179.543 186.923C150.166 186.923 125.315 197.456 105.044 218.498C84.7015 239.55 74.566 264.655 74.566 293.787C74.566 322.94 84.7015 347.893 105.044 368.652C125.315 389.406 150.166 399.783 179.543 399.783H284.516Z" fill="#1B6ECF"/>
</svg>
