<svg width="240" height="264" viewBox="0 0 240 264" fill="none" xmlns="http://www.w3.org/2000/svg">
    <g clip-path="url(#clip0_178_276)">
        <path d="M220.139 -29L-237.742 67.3338L-290.001 145L239.999 144.139L220.139 -29Z" fill="url(#paint0_linear_178_276)" fill-opacity="0.3"/>
        <path d="M-259.414 38L169.094 127.69L218 200L-278 199.198L-259.414 38Z" fill="url(#paint1_linear_178_276)" fill-opacity="0.3"/>
        <path d="M36.9565 154L-194.576 202.721L-221.001 242L46.9988 241.565L36.9565 154Z" fill="url(#paint2_linear_178_276)" fill-opacity="0.3"/>
        <path d="M-26.3793 216L103.21 242.575L118 264L-32 263.763L-26.3793 216Z" fill="url(#paint3_linear_178_276)" fill-opacity="0.3"/>
    </g>
    <defs>
        <linearGradient id="paint0_linear_178_276" x1="-269.294" y1="20.4699" x2="195.993" y2="97.0878" gradientUnits="userSpaceOnUse">
            <stop stop-color="#C50684"/>
            <stop offset="1" stop-color="#3082FD"/>
        </linearGradient>
        <linearGradient id="paint1_linear_178_276" x1="198.621" y1="84.0582" x2="-236.698" y2="156.112" gradientUnits="userSpaceOnUse">
            <stop stop-color="#C50684"/>
            <stop offset="1" stop-color="#3082FD"/>
        </linearGradient>
        <linearGradient id="paint2_linear_178_276" x1="-210.53" y1="179.019" x2="24.749" y2="217.756" gradientUnits="userSpaceOnUse">
            <stop stop-color="#C50684"/>
            <stop offset="1" stop-color="#3082FD"/>
        </linearGradient>
        <linearGradient id="paint3_linear_178_276" x1="112.139" y1="229.647" x2="-19.3631" y2="251.863" gradientUnits="userSpaceOnUse">
            <stop stop-color="#C50684"/>
            <stop offset="1" stop-color="#3082FD"/>
        </linearGradient>
        <clipPath id="clip0_178_276">
            <rect width="240" height="264" fill="white"/>
        </clipPath>
    </defs>
</svg>
