<svg width="580" height="878" viewBox="0 0 580 878" fill="none" xmlns="http://www.w3.org/2000/svg">
    <circle cx="208.998" cy="818" r="51" fill="url(#paint0_radial_0_1)"/>
    <path d="M528.218 88.5031L70.2655 184.286L17.9987 261.508L548.081 260.652L528.218 88.5031Z" fill="url(#paint1_linear_0_1)" fill-opacity="0.2"/>
    <path d="M47.9366 135.025L477.544 224.88L526.576 297.322L29.303 296.519L47.9366 135.025Z" fill="url(#paint2_linear_0_1)" fill-opacity="0.2"/>
    <path d="M344.789 271.717L113.407 320.111L86.9987 359.128L354.825 358.696L344.789 271.717Z" fill="url(#paint3_linear_0_1)" fill-opacity="0.2"/>
    <path d="M322.427 293.987L451.721 321.03L466.478 342.832L316.819 342.59L322.427 293.987Z" fill="url(#paint4_linear_0_1)" fill-opacity="0.2"/>
    <path d="M236.144 735.085L162.834 774.228L183.845 818.021L232.466 817.847L236.144 735.085Z" stroke="#263238" stroke-width="2.03125" stroke-miterlimit="10" stroke-linecap="round" stroke-linejoin="round"/>
    <path d="M160.311 855.342L177.047 828.803" stroke="white" stroke-width="2.03125" stroke-miterlimit="10" stroke-linecap="round" stroke-linejoin="round"/>
    <path d="M160.311 855.342L156.036 785.01L177.047 828.803L225.667 828.629L160.311 855.342Z" stroke="white" stroke-width="2.03125" stroke-miterlimit="10" stroke-linecap="round" stroke-linejoin="round"/>
    <path d="M207.903 779.871L162.834 774.228L183.845 818.021L232.466 817.847L207.903 779.871Z" stroke="white" stroke-width="2.03125" stroke-miterlimit="10" stroke-linecap="round" stroke-linejoin="round"/>
    <path d="M236.144 735.085L183.845 818.021" stroke="white" stroke-width="2.03125" stroke-miterlimit="10" stroke-linecap="round" stroke-linejoin="round"/>
    <path d="M236.144 735.085L162.834 774.228L183.845 818.021L232.466 817.847L236.144 735.085Z" stroke="white" stroke-width="2.03125" stroke-miterlimit="10" stroke-linecap="round" stroke-linejoin="round"/>
    <defs>
        <radialGradient id="paint0_radial_0_1" cx="0" cy="0" r="1" gradientUnits="userSpaceOnUse" gradientTransform="translate(208.998 818) rotate(90) scale(51)">
            <stop stop-color="#4AE2FF"/>
            <stop offset="1" stop-color="#98EDFD" stop-opacity="0"/>
        </radialGradient>
        <linearGradient id="paint1_linear_0_1" x1="38.7094" y1="137.69" x2="503.923" y2="214.748" gradientUnits="userSpaceOnUse">
            <stop stop-color="#C50684"/>
            <stop offset="1" stop-color="#3082FD"/>
        </linearGradient>
        <linearGradient id="paint2_linear_0_1" x1="507.147" y1="181.168" x2="70.7277" y2="253.457" gradientUnits="userSpaceOnUse">
            <stop stop-color="#C50684"/>
            <stop offset="1" stop-color="#3082FD"/>
        </linearGradient>
        <linearGradient id="paint3_linear_0_1" x1="97.4629" y1="296.569" x2="332.514" y2="335.503" gradientUnits="userSpaceOnUse">
            <stop stop-color="#C50684"/>
            <stop offset="1" stop-color="#3082FD"/>
        </linearGradient>
        <linearGradient id="paint4_linear_0_1" x1="460.63" y1="307.874" x2="329.286" y2="329.63" gradientUnits="userSpaceOnUse">
            <stop stop-color="#C50684"/>
            <stop offset="1" stop-color="#3082FD"/>
        </linearGradient>
    </defs>
</svg>
