<svg width="80" height="80" viewBox="0 0 80 80" fill="none" xmlns="http://www.w3.org/2000/svg">
    <rect width="80" height="80" fill="#1B6ECF"/>
    <path d="M51.5485 13C51.5485 15.054 50.8263 16.8047 49.3853 18.2515C47.9431 19.6977 46.1981 20.4226 44.151 20.4226H34.849C32.8007 20.4226 31.0569 19.6977 29.6147 18.2515C28.1726 16.8047 27.4515 15.054 27.4515 13H51.5485ZM60 46.7543V67H39.4749C33.8807 67 29.0687 65.029 25.0421 61.0892C21.0142 57.1482 19 52.3705 19 46.7543C19 41.1404 21.0142 36.3452 25.0421 32.3713C29.0687 28.3961 33.8807 26.4094 39.4749 26.4094C45.0697 26.4094 49.8886 28.3961 53.9343 32.3713C57.9789 36.3452 60 41.1404 60 46.7543ZM51.4064 58.9326V46.7543C51.4064 43.4072 50.2519 40.5228 47.935 38.1041C45.6261 35.6865 42.7949 34.4763 39.45 34.4763C36.104 34.4763 33.2734 35.6865 30.9645 38.1041C28.6475 40.5228 27.4931 43.4072 27.4931 46.7543C27.4931 50.1037 28.6475 52.9707 30.9645 55.3558C33.2734 57.7403 36.104 58.9326 39.45 58.9326H51.4064Z" fill="white"/>
</svg>
