<svg width="167" height="27" viewBox="0 0 167 27" fill="none" xmlns="http://www.w3.org/2000/svg">
    <path d="M127.36 -3.8147e-06C127.36 0.864523 127.054 1.6014 126.442 2.21037C125.83 2.81911 125.089 3.12421 124.22 3.12421H120.27C119.401 3.12421 118.66 2.81911 118.048 2.21037C117.436 1.6014 117.129 0.864523 117.129 -3.8147e-06H127.36ZM17.4078 14.2073V22.7289H8.69337C6.31819 22.7289 4.27518 21.8992 2.5653 20.241C0.855428 18.5822 0 16.5712 0 14.2073C0 11.8444 0.855428 9.82612 2.5653 8.15345C4.27518 6.48029 6.31819 5.64408 8.69337 5.64408C11.0688 5.64408 13.115 6.48029 14.8322 8.15345C16.5492 9.82612 17.4078 11.8444 17.4078 14.2073ZM13.759 19.3332V14.2073C13.759 12.7985 13.2688 11.5845 12.2853 10.5664C11.305 9.54885 10.1027 9.03946 8.68233 9.03946C7.26218 9.03946 6.06036 9.54885 5.08006 10.5664C4.09658 11.5845 3.60643 12.7985 3.60643 14.2073C3.60643 15.6171 4.09658 16.8239 5.08006 17.8278C6.06036 18.8314 7.26218 19.3332 8.68233 19.3332H13.759ZM23.9216 14.1654C23.9216 12.7556 24.4151 11.5488 25.4025 10.5452C26.3897 9.54128 27.5918 9.03946 29.0085 9.03946H30.6615C31.6059 9.03946 32.4108 8.70849 33.0761 8.04655C33.7414 7.3846 34.0741 6.58378 34.0741 5.64408H29.0085C26.6333 5.64408 24.5903 6.47321 22.8804 8.13173C21.1705 9.79049 20.3151 11.8017 20.3151 14.1654V22.7289C21.3028 22.7289 22.1508 22.3764 22.8591 21.672C23.5671 20.9669 23.9216 20.1233 23.9216 19.1411V14.1654ZM52.8224 5.90011C52.8224 6.83982 52.4892 7.64064 51.8242 8.30283C51.1586 8.96477 50.3537 9.29598 49.4095 9.29598H45.9753V22.7289C44.9876 22.7289 44.1398 22.3764 43.4318 21.672C42.7233 20.9669 42.3688 20.1233 42.3688 19.1411V9.29598H38.9348C37.9904 9.29598 37.1855 8.96477 36.5202 8.30283C35.8544 7.64064 35.5217 6.83982 35.5217 5.90011H52.8224ZM70.1755 9.23155C70.1755 8.23522 69.8245 7.38802 69.1236 6.69069C68.4225 5.99262 67.5712 5.64408 66.5691 5.64408V12.4995H58.5631V9.23155C58.5631 8.24937 58.2086 7.40584 57.5006 6.70094C56.7924 5.99604 55.9443 5.64408 54.9569 5.64408V19.1411C54.9569 20.1233 55.3111 20.9669 56.0194 21.672C56.7278 22.3764 57.5754 22.7289 58.5631 22.7289V15.8734H66.5691V19.1411C66.5691 20.1233 66.9236 20.9669 67.6315 21.672C68.34 22.3764 69.1879 22.7289 70.1755 22.7289V9.23155ZM90.5976 14.2073V22.7289H81.8831C79.5077 22.7289 77.4649 21.8992 75.7551 20.241C74.0452 18.5822 73.1897 16.5712 73.1897 14.2073C73.1897 11.8444 74.0452 9.82612 75.7551 8.15345C77.4649 6.48029 79.5077 5.64408 81.8831 5.64408C84.2585 5.64408 86.3045 6.48029 88.0222 8.15345C89.7395 9.82612 90.5976 11.8444 90.5976 14.2073ZM86.949 19.3332V14.2073C86.949 12.7985 86.4586 11.5845 85.4751 10.5664C84.4948 9.54885 83.2925 9.03946 81.8723 9.03946C80.4519 9.03946 79.2499 9.54885 78.2698 10.5664C77.2861 11.5845 76.7959 12.7985 76.7959 14.2073C76.7959 15.6171 77.2861 16.8239 78.2698 17.8278C79.2499 18.8314 80.4519 19.3332 81.8723 19.3332H86.949ZM97.1113 23.4123V22.7289H102.198C104.588 22.7289 106.638 21.8992 108.348 20.241C110.058 18.5822 110.912 16.5712 110.912 14.2073C110.912 11.8444 110.054 9.82612 108.337 8.15345C106.62 6.48029 104.574 5.64408 102.198 5.64408C99.8228 5.64408 97.7803 6.48029 96.0702 8.15345C94.3605 9.82612 93.5049 11.8444 93.5049 14.2073V27C94.4925 27 95.3406 26.6478 96.0491 25.9431C96.7568 25.2382 97.1113 24.3945 97.1113 23.4123ZM97.1324 19.3332V14.2073C97.1324 12.7985 97.6225 11.5845 98.6028 10.5664C99.5829 9.54885 100.782 9.03946 102.198 9.03946C103.615 9.03946 104.814 9.54885 105.794 10.5664C106.774 11.5845 107.264 12.7985 107.264 14.2073C107.264 15.6171 106.774 16.8239 105.794 17.8278C104.814 18.8314 103.615 19.3332 102.198 19.3332H97.1324ZM130.949 14.2073V22.7289H122.234C119.859 22.7289 117.816 21.8992 116.106 20.241C114.396 18.5822 113.541 16.5712 113.541 14.2073C113.541 11.8444 114.396 9.82612 116.106 8.15345C117.816 6.48029 119.859 5.64408 122.234 5.64408C124.61 5.64408 126.656 6.48029 128.373 8.15345C130.091 9.82612 130.949 11.8444 130.949 14.2073ZM127.3 19.3332V14.2073C127.3 12.7985 126.81 11.5845 125.826 10.5664C124.846 9.54885 123.644 9.03946 122.224 9.03946C120.803 9.03946 119.601 9.54885 118.621 10.5664C117.637 11.5845 117.147 12.7985 117.147 14.2073C117.147 15.6171 117.637 16.8239 118.621 17.8278C119.601 18.8314 120.803 19.3332 122.224 19.3332H127.3ZM137.463 14.2073C137.463 15.6171 137.956 16.8239 138.944 17.8278C139.931 18.8314 141.133 19.3332 142.55 19.3332H144.202C145.146 19.3332 145.951 19.6642 146.617 20.3262C147.283 20.9883 147.615 21.7892 147.615 22.7289H142.55C140.174 22.7289 138.131 21.8992 136.421 20.241C134.711 18.5822 133.856 16.5712 133.856 14.2073V5.64408C134.844 5.64408 135.692 5.99604 136.4 6.70094C137.108 7.40584 137.463 8.24937 137.463 9.23155V14.2073ZM166.427 14.2073V22.7289H157.713C155.338 22.7289 153.295 21.8992 151.585 20.241C149.875 18.5822 149.02 16.5712 149.02 14.2073C149.02 11.8444 149.875 9.82612 151.585 8.15345C153.295 6.48029 155.338 5.64408 157.713 5.64408C160.089 5.64408 162.135 6.48029 163.852 8.15345C165.569 9.82612 166.427 11.8444 166.427 14.2073ZM162.779 19.3332V14.2073C162.779 12.7985 162.289 11.5845 161.305 10.5664C160.325 9.54885 159.123 9.03946 157.702 9.03946C156.282 9.03946 155.08 9.54885 154.1 10.5664C153.116 11.5845 152.626 12.7985 152.626 14.2073C152.626 15.6171 153.116 16.8239 154.1 17.8278C155.08 18.8314 156.282 19.3332 157.702 19.3332H162.779Z" fill="white"/>
</svg>
