<svg width="346" height="57" viewBox="0 0 346 57" fill="none" xmlns="http://www.w3.org/2000/svg">
    <g filter="url(#filter0_i_195_813)">
        <path d="M264.78 0C264.78 1.79734 264.143 3.32928 262.871 4.59534C261.598 5.86089 260.057 6.49518 258.25 6.49518H250.04C248.232 6.49518 246.693 5.86089 245.42 4.59534C244.147 3.32928 243.51 1.79734 243.51 0H264.78ZM36.1906 29.5368V47.2529H18.0734C13.1354 47.2529 8.88802 45.5282 5.33322 42.0807C1.77842 38.6321 0 34.4514 0 29.5368C0 24.6243 1.77842 20.4284 5.33322 16.9509C8.88802 13.4724 13.1354 11.7339 18.0734 11.7339C23.0118 11.7339 27.2659 13.4724 30.836 16.9509C34.4056 20.4284 36.1906 24.6243 36.1906 29.5368ZM28.6047 40.1935V29.5368C28.6047 26.6079 27.5857 24.0839 25.541 21.9674C23.503 19.8519 21.0034 18.7929 18.0504 18.7929C15.098 18.7929 12.5994 19.8519 10.5614 21.9674C8.51672 24.0839 7.49772 26.6079 7.49772 29.5368C7.49772 32.4678 8.51672 34.9765 10.5614 37.0636C12.5994 39.1502 15.098 40.1935 18.0504 40.1935H28.6047ZM49.7325 29.4496C49.7325 26.5186 50.7587 24.0098 52.8115 21.9233C54.8638 19.8362 57.3629 18.7929 60.3082 18.7929H63.7447C65.7082 18.7929 67.3816 18.1048 68.7647 16.7286C70.1479 15.3525 70.8395 13.6876 70.8395 11.7339H60.3082C55.3702 11.7339 51.1228 13.4577 47.568 16.9057C44.0132 20.3543 42.2348 24.5355 42.2348 29.4496V47.2529C44.2881 47.2529 46.0513 46.5202 47.5237 45.0557C48.9956 43.5898 49.7325 41.8361 49.7325 39.7941V29.4496ZM109.817 12.2662C109.817 14.2199 109.124 15.8848 107.742 17.2614C106.358 18.6376 104.685 19.3262 102.722 19.3262H95.5818V47.2529C93.5285 47.2529 91.7659 46.5202 90.294 45.0557C88.8211 43.5898 88.0841 41.8361 88.0841 39.7941V19.3262H80.9449C78.9814 19.3262 77.308 18.6376 75.9248 17.2614C74.5407 15.8848 73.8491 14.2199 73.8491 12.2662H109.817ZM145.894 19.1922C145.894 17.1209 145.164 15.3596 143.707 13.9098C142.249 12.4586 140.479 11.7339 138.396 11.7339V25.9863H121.752V19.1922C121.752 17.1503 121.015 15.3966 119.543 13.9311C118.07 12.4657 116.307 11.7339 114.254 11.7339V39.7941C114.254 41.8361 114.991 43.5898 116.463 45.0557C117.936 46.5202 119.698 47.2529 121.752 47.2529V33.0006H138.396V39.7941C138.396 41.8361 139.133 43.5898 140.605 45.0557C142.078 46.5202 143.84 47.2529 145.894 47.2529V19.1922ZM188.351 29.5368V47.2529H170.234C165.295 47.2529 161.048 45.5282 157.494 42.0807C153.939 38.6321 152.16 34.4514 152.16 29.5368C152.16 24.6243 153.939 20.4284 157.494 16.9509C161.048 13.4724 165.295 11.7339 170.234 11.7339C175.172 11.7339 179.426 13.4724 182.997 16.9509C186.567 20.4284 188.351 24.6243 188.351 29.5368ZM180.766 40.1935V29.5368C180.766 26.6079 179.746 24.0839 177.701 21.9674C175.663 19.8519 173.164 18.7929 170.211 18.7929C167.258 18.7929 164.759 19.8519 162.722 21.9674C160.677 24.0839 159.658 26.6079 159.658 29.5368C159.658 32.4678 160.677 34.9765 162.722 37.0636C164.759 39.1502 167.258 40.1935 170.211 40.1935H180.766ZM201.893 48.6738V47.2529H212.469C217.438 47.2529 221.698 45.5282 225.254 42.0807C228.808 38.6321 230.585 34.4514 230.585 29.5368C230.585 24.6243 228.801 20.4284 225.231 16.9509C221.661 13.4724 217.407 11.7339 212.469 11.7339C207.53 11.7339 203.284 13.4724 199.728 16.9509C196.174 20.4284 194.395 24.6243 194.395 29.5368V56.1326C196.448 56.1326 198.212 55.4003 199.684 53.9354C201.156 52.4699 201.893 50.7157 201.893 48.6738ZM201.937 40.1935V29.5368C201.937 26.6079 202.956 24.0839 204.994 21.9674C207.031 19.8519 209.523 18.7929 212.469 18.7929C215.413 18.7929 217.906 19.8519 219.944 21.9674C221.981 24.0839 223 26.6079 223 29.5368C223 32.4678 221.981 34.9765 219.944 37.0636C217.906 39.1502 215.413 40.1935 212.469 40.1935H201.937ZM272.24 29.5368V47.2529H254.123C249.185 47.2529 244.938 45.5282 241.383 42.0807C237.828 38.6321 236.05 34.4514 236.05 29.5368C236.05 24.6243 237.828 20.4284 241.383 16.9509C244.938 13.4724 249.185 11.7339 254.123 11.7339C259.061 11.7339 263.315 13.4724 266.886 16.9509C270.456 20.4284 272.24 24.6243 272.24 29.5368ZM264.655 40.1935V29.5368C264.655 26.6079 263.636 24.0839 261.591 21.9674C259.553 19.8519 257.053 18.7929 254.101 18.7929C251.148 18.7929 248.649 19.8519 246.611 21.9674C244.566 24.0839 243.547 26.6079 243.547 29.5368C243.547 32.4678 244.566 34.9765 246.611 37.0636C248.649 39.1502 251.148 40.1935 254.101 40.1935H264.655ZM285.783 29.5368C285.783 32.4678 286.808 34.9765 288.862 37.0636C290.913 39.1502 293.413 40.1935 296.358 40.1935H299.794C301.757 40.1935 303.431 40.8816 304.814 42.2577C306.198 43.6344 306.889 45.2993 306.889 47.2529H296.358C291.419 47.2529 287.173 45.5282 283.618 42.0807C280.063 38.6321 278.285 34.4514 278.285 29.5368V11.7339C280.338 11.7339 282.101 12.4657 283.573 13.9311C285.045 15.3966 285.783 17.1503 285.783 19.1922V29.5368ZM346 29.5368V47.2529H327.884C322.945 47.2529 318.698 45.5282 315.143 42.0807C311.588 38.6321 309.81 34.4514 309.81 29.5368C309.81 24.6243 311.588 20.4284 315.143 16.9509C318.698 13.4724 322.945 11.7339 327.884 11.7339C332.822 11.7339 337.076 13.4724 340.646 16.9509C344.216 20.4284 346 24.6243 346 29.5368ZM338.415 40.1935V29.5368C338.415 26.6079 337.396 24.0839 335.35 21.9674C333.313 19.8519 330.813 18.7929 327.861 18.7929C324.908 18.7929 322.409 19.8519 320.372 21.9674C318.327 24.0839 317.308 26.6079 317.308 29.5368C317.308 32.4678 318.327 34.9765 320.372 37.0636C322.409 39.1502 324.908 40.1935 327.861 40.1935H338.415Z" fill="#1B6ECF"/>
    </g>
    <defs>
        <filter id="filter0_i_195_813" x="0" y="0" width="346" height="60.1326" filterUnits="userSpaceOnUse" color-interpolation-filters="sRGB">
            <feFlood flood-opacity="0" result="BackgroundImageFix"/>
            <feBlend mode="normal" in="SourceGraphic" in2="BackgroundImageFix" result="shape"/>
            <feColorMatrix in="SourceAlpha" type="matrix" values="0 0 0 0 0 0 0 0 0 0 0 0 0 0 0 0 0 0 127 0" result="hardAlpha"/>
            <feOffset dy="4"/>
            <feGaussianBlur stdDeviation="3"/>
            <feComposite in2="hardAlpha" operator="arithmetic" k2="-1" k3="1"/>
            <feColorMatrix type="matrix" values="0 0 0 0 0.441675 0 0 0 0 0.693444 0 0 0 0 0.985619 0 0 0 1 0"/>
            <feBlend mode="normal" in2="shape" result="effect1_innerShadow_195_813"/>
        </filter>
    </defs>
</svg>
